<?xml version="1.0" encoding="UTF-8" standalone="no"?>
<svg
   class="h-10 w-auto -mt-1 -mr-1 inline-block"
   width="175.05945"
   height="59.605686"
   viewBox="0 0 186.52037 58.329752"
   version="1.1"
   id="svg4"
   sodipodi:docname="logo-with-text.svg"
   inkscape:version="1.1.2 (0a00cf5339, 2022-02-04)"
   xmlns:inkscape="http://www.inkscape.org/namespaces/inkscape"
   xmlns:sodipodi="http://sodipodi.sourceforge.net/DTD/sodipodi-0.dtd"
   xmlns="http://www.w3.org/2000/svg"
   xmlns:svg="http://www.w3.org/2000/svg">
  <defs
     id="defs8" />
  <sodipodi:namedview
     id="namedview6"
     pagecolor="#ffffff"
     bordercolor="#666666"
     borderopacity="1.0"
     inkscape:pageshadow="2"
     inkscape:pageopacity="0.0"
     inkscape:pagecheckerboard="0"
     showgrid="false"
     fit-margin-top="0"
     fit-margin-left="0"
     fit-margin-right="0"
     fit-margin-bottom="0"
     inkscape:zoom="4"
     inkscape:cx="72.625"
     inkscape:cy="29.625"
     inkscape:window-width="2490"
     inkscape:window-height="1376"
     inkscape:window-x="0"
     inkscape:window-y="0"
     inkscape:window-maximized="1"
     inkscape:current-layer="svg4" />
  <path
     fill="#10b981"
     d="M 2.42,-1.9020045 A 2.42,2.42 0 0 0 0,0.51799549 V 36.277995 a 2.42,2.42 0 0 0 2.42,2.41 H 37.3 a 41.54,41.54 0 0 0 12,9.37 v 8.96 H 32.2 v -7.02 h 4.54 v -3.72 h -5.83 a 2.42,2.42 0 0 0 -2.42,2.42 v 9.62 a 2.42,2.42 0 0 0 2.42,2.41 h 19.7 a 2.42,2.42 0 0 0 2.4,-2.41 v -8.53 a 58.58,58.58 0 0 0 14.66,3.89 l 0.5,-3.68 c -6,-0.83 -11,-2.36 -15.15,-4.26 V 0.51799549 A 2.42,2.42 0 0 0 50.6,-1.9020045 Z m 4.12,3.71 H 46.49 L 26.51,20.647995 Z m -2.82,2.45 13.08,12.3399995 -13.1,15.23 z m 45.6,0 V 43.817995 c -11.7,-6.5 -15.09,-16.1 -15.28,-16.65 0,0 -1.14,4.02 0.83,7.81 H 5.9 l 13.61,-15.83 5.35,5.04 a 2.4,2.4 0 0 0 3.31,0 z M 41.93,23.857995 a 2.8,2.8 0 1 0 0,5.6 2.8,2.8 0 0 0 0,-5.6 z"
     id="path2" />
  <text
     xml:space="preserve"
     style="font-style:normal;font-weight:normal;font-size:55.3995px;line-height:1.25;font-family:sans-serif;letter-spacing:0px;word-spacing:0px;fill:#10b981;fill-opacity:1;stroke:none;stroke-width:1.38499"
     x="67.065468"
     y="38.769627"
     id="text2565"><tspan
       sodipodi:role="line"
       id="tspan2563"
       style="font-style:normal;font-variant:normal;font-weight:normal;font-stretch:normal;font-family:Inter;-inkscape-font-specification:Inter;fill:#10b981;fill-opacity:1;stroke-width:1.38499"
       x="67.065468"
       y="38.769627">Keila</tspan></text>
</svg>
